<?xml version="1.0" encoding="UTF-8"?>
<svg width="100px" height="100px" viewBox="0 0 100 100" version="1.1" xmlns="http://www.w3.org/2000/svg" xmlns:xlink="http://www.w3.org/1999/xlink">
    <!-- Generator: Sketch 45.2 (43514) - http://www.bohemiancoding.com/sketch -->
    <title>designate</title>
    <desc>Created with Sketch.</desc>
    <defs></defs>
    <g id="Page-1" stroke="none" stroke-width="1" fill="none" fill-rule="evenodd">
        <g id="designate" fill-rule="nonzero">
            <g>
                <path d="M50,1.13686838e-13 C22.3857625,1.11995953e-13 3.38176876e-15,22.3857625 0,50 C-3.38176876e-15,77.6142375 22.3857625,100 50,100 C63.2608245,100 75.9785201,94.732158 85.3553391,85.3553391 C94.732158,75.9785201 100,63.2608245 100,50 C100,22.3857625 77.6142375,1.15377722e-13 50,1.13686838e-13 Z" id="path4784" fill="#DB562A"></path>
                <path d="M38.79245,50.74652 C38.79245,53.0440583 39.4536707,55.182397 40.5789217,57.0023368 L22.7784275,67.4335223 C20.9340651,68.4981689 19.692128,67.6270944 19.692128,65.497801 L19.692128,35.995239 C19.692128,33.8659456 20.9340651,32.9948711 22.7784275,34.0595177 L40.7118894,44.4907032 C39.5866384,46.310643 38.79245,48.4489817 38.79245,50.74652" id="path118-3" fill="#FFFFFF" transform="translate(30.202009, 50.746520) scale(-1, 1) rotate(-180.000000) translate(-30.202009, -50.746520) "></path>
                <path d="M78.38455,67.4332859 L60.5858649,57.0021004 C61.7111159,55.1821607 62.5062088,53.0438219 62.5062088,50.7462836 C62.5062088,48.4487454 61.9119243,46.3104066 60.7866733,44.4904669 L78.3510819,34.0592814 C80.1945398,32.9955393 81.2003912,33.8657093 81.2003912,35.9950026 L81.2003912,65.4984692 C81.2003912,67.626858 80.2280079,68.4979326 78.38455,67.4332859" id="path122" fill="#FFFFFF" transform="translate(70.893128, 50.746493) scale(-1, 1) rotate(-180.000000) translate(-70.893128, -50.746493) "></path>
                <path d="M77.44292,27.4976055 L52.3798531,41.8707877 C51.4653605,42.3954224 49.9674379,42.3954224 49.0520408,41.8707877 L23.9898784,27.4976055 C23.0744813,26.9729708 23.0744813,26.1136553 23.9898784,25.5890206 L42.3403345,15.0655717 C44.4940505,17.1921514 47.4510003,18.5073564 50.7163992,18.5073564 C53.9817981,18.5073564 56.9387479,17.1921514 59.0915593,15.0655717 L77.44292,25.5890206 C78.3583171,26.1136553 78.3583171,26.9729708 77.44292,27.4976055" id="path126" fill="#FFFFFF" transform="translate(50.716399, 28.664918) scale(-1, 1) rotate(-180.000000) translate(-50.716399, -28.664918) "></path>
                <path d="M77.44292,75.9085507 L59.0870366,86.4347132 C56.9342252,84.3108471 53.979989,82.9974512 50.7163992,82.9974512 C47.4528094,82.9974512 44.4985732,84.3108471 42.3448573,86.4347132 L23.9898784,75.9085507 C23.0744813,75.383916 23.0744813,74.5246005 23.9898784,73.9999658 L49.0520408,59.6267836 C49.9674379,59.1021489 51.4653605,59.1021489 52.3798531,59.6267836 L77.44292,73.9999658 C78.3583171,74.5246005 78.3583171,75.383916 77.44292,75.9085507" id="path130-6" fill="#FFFFFF" transform="translate(50.716399, 72.834010) scale(-1, 1) rotate(-180.000000) translate(-50.716399, -72.834010) "></path>
            </g>
        </g>
    </g>
</svg>